<svg width="49" height="49" viewBox="0 0 49 49" fill="none" xmlns="http://www.w3.org/2000/svg">
<circle cx="24.5" cy="24.5" r="23.5" fill="white" stroke="#00BAF2" stroke-width="2"/>
<path d="M38.9051 13.5887C38.6507 12.8615 37.9585 12.3396 37.145 12.3396H37.1276C36.5991 12.3396 36.122 12.5602 35.7824 12.9128C35.4429 12.5591 34.9657 12.3396 34.4373 12.3396H34.4198C33.9547 12.3396 33.53 12.5099 33.2035 12.7916V12.6497C33.1926 12.5067 33.0747 12.3942 32.9295 12.3942H31.6815C31.5297 12.3942 31.4053 12.5176 31.4053 12.6704V19.4474C31.4053 19.6003 31.5287 19.7237 31.6815 19.7237H32.9295C33.0692 19.7237 33.1828 19.62 33.2013 19.4846V14.6204C33.2013 14.6041 33.2013 14.5877 33.2024 14.5713C33.2232 14.354 33.3815 14.1761 33.6326 14.1531H33.863C33.9678 14.1619 34.0573 14.199 34.1261 14.2547C34.2353 14.342 34.2954 14.4741 34.2954 14.6193L34.2997 19.4605C34.2997 19.6134 34.4231 19.7368 34.576 19.7368H35.8239C35.9713 19.7368 36.0914 19.62 36.098 19.4736V14.6139C36.0969 14.4534 36.17 14.3093 36.3 14.2241C36.3633 14.1826 36.4408 14.1553 36.5293 14.1477H36.7596C37.0293 14.1717 37.1931 14.3759 37.192 14.615L37.1964 19.4496C37.1964 19.6025 37.3197 19.7259 37.4726 19.7259H38.7206C38.8723 19.7259 38.9968 19.6025 38.9968 19.4496V14.2492C38.9968 13.8955 38.9564 13.7437 38.9029 13.5887H38.9051Z" fill="#00BDF2"/>
<path d="M30.4563 12.4117H29.7434V11.2555V11.2533C29.7434 11.1125 29.6309 11 29.4911 11C29.4748 11 29.4595 11.0022 29.4442 11.0055C28.6526 11.2227 28.8109 12.3189 27.3664 12.4117H27.2256C27.2048 12.4117 27.1852 12.415 27.1655 12.4183C27.0422 12.4456 26.9504 12.5559 26.9504 12.6869V13.9349C26.9504 14.0877 27.0738 14.2111 27.2267 14.2111H27.98V19.5021C27.98 19.6528 28.1012 19.7751 28.2519 19.7751H29.4857C29.6364 19.7751 29.7586 19.6528 29.7586 19.5021V14.2122H30.4585C30.6103 14.2122 30.7347 14.0888 30.7347 13.9359V12.688C30.7347 12.5362 30.6114 12.4117 30.4585 12.4117H30.4563Z" fill="#00BDF2"/>
<path d="M25.9671 12.4116H24.7192C24.5674 12.4116 24.444 12.535 24.444 12.6879V15.269C24.4418 15.4284 24.3119 15.5572 24.1525 15.5572H23.6295C23.4679 15.5572 23.3369 15.4262 23.3369 15.2646L23.3314 12.6889C23.3314 12.5372 23.2081 12.4127 23.0552 12.4127H21.8072C21.6544 12.4127 21.531 12.5361 21.531 12.6889V15.5168C21.531 16.5912 22.2975 17.3565 23.3718 17.3565C23.3718 17.3565 24.1787 17.3565 24.2038 17.3609C24.349 17.3773 24.4626 17.4996 24.4626 17.6502C24.4626 17.8009 24.3512 17.9199 24.2071 17.9385C24.2005 17.9396 24.194 17.9407 24.1863 17.9418L22.3608 17.9483C22.209 17.9483 22.0846 18.0717 22.0846 18.2245V19.4725C22.0846 19.6243 22.2079 19.7477 22.3608 19.7477H24.4014C25.4758 19.7477 26.2423 18.9823 26.2423 17.9079V12.6879C26.2423 12.5361 26.1189 12.4116 25.966 12.4116H25.9671Z" fill="#162B75"/>
<path d="M13.9982 12.4116H11.2708C11.1212 12.4116 11 12.5328 11 12.6824V13.9053V13.9096C11 13.9184 11 13.9238 11 13.9293V19.4627C11 19.6134 11.1125 19.7356 11.2522 19.7389H12.5231C12.676 19.7389 12.7993 19.6155 12.7993 19.4627L12.8037 17.5662H13.9971C14.9961 17.5662 15.6927 16.8739 15.6927 15.8706V14.1105C15.6927 13.1071 14.9961 12.4116 13.9971 12.4116H13.9982ZM13.889 14.6979V15.4677C13.889 15.6293 13.758 15.7603 13.5964 15.7603H12.8048V14.2175H13.5964C13.758 14.2175 13.889 14.3485 13.889 14.5101V14.6979V14.6979Z" fill="#162B75"/>
<path d="M18.8675 12.4195H17.1358C16.983 12.4195 16.8585 12.5353 16.8585 12.6783V13.1729V13.1795V13.8477C16.8585 13.9994 16.9906 14.1217 17.1522 14.1217H18.8009C18.9308 14.1425 19.0345 14.2364 19.0487 14.3859V14.5464C19.0334 14.6873 18.9319 14.791 18.8074 14.803H17.9918C16.9055 14.803 16.1313 15.5247 16.1313 16.5369V17.989C16.1313 18.9957 16.7963 19.7119 17.875 19.7119H20.1384C20.5445 19.7119 20.8732 19.4051 20.8732 19.0262V14.292C20.8732 13.1434 20.2814 12.4185 18.8664 12.4185L18.8675 12.4195ZM19.0662 17.6287V17.8241C19.0662 17.8394 19.064 17.8547 19.0607 17.87C19.0575 17.8842 19.0542 17.8973 19.0498 17.9104C19.0105 18.0196 18.9013 18.0982 18.7725 18.0982H18.2528C18.0901 18.0982 17.9591 17.9748 17.9591 17.8241V16.9539V16.7574C17.9591 16.6056 18.0912 16.4834 18.2528 16.4834H18.7725C18.9352 16.4834 19.0662 16.6067 19.0662 16.7574V17.6298V17.6287Z" fill="#162B75"/>
<path d="M32.4298 37.2147H30.9307L33.015 29.6865H34.5141L32.4298 37.2147V37.2147Z" fill="#231F20"/>
<path d="M31.6513 29.9248C31.5476 29.7818 31.3871 29.7097 31.1698 29.7097H22.9275L22.5192 31.1837H30.0168L29.5801 32.7581H23.5816V32.7548H22.0836L20.8389 37.2466H22.339L23.1743 34.2321H29.9164C30.1271 34.2321 30.3247 34.16 30.5114 34.017C30.697 33.8729 30.8204 33.696 30.8783 33.4842L31.7135 30.4685C31.7747 30.2502 31.7539 30.0678 31.6502 29.9248H31.6513Z" fill="#231F20"/>
<path d="M19.9663 36.7443C19.8833 37.0423 19.6126 37.2487 19.3025 37.2487H11.5701C11.3594 37.2487 11.2032 37.1766 11.0995 37.0336C10.9969 36.8906 10.9751 36.7126 11.0329 36.5008L12.9196 29.7085H14.4198L12.734 35.7747H18.7347L20.4205 29.7085H21.9207L19.9663 36.7443V36.7443Z" fill="#231F20"/>
<path d="M37.1025 29.7007L39.0001 33.4741L35.0105 37.2474L37.1025 29.7007Z" fill="#008C44"/>
<path d="M35.7725 29.7007L37.6679 33.4741L33.6772 37.2474L35.7725 29.7007Z" fill="#F47920"/>
<path d="M11.0645 23.0723H20.5514L20.1813 24.8192H11.0645V23.0723Z" fill="#00BDF2"/>
<path d="M38.999 23.0723V24.8192H29.5732L29.9434 23.0723H38.999Z" fill="#00BDF2"/>
<path d="M11.0645 24.8191H20.1813L19.81 26.5649H11.0645V24.8191Z" fill="#1B3281"/>
<path d="M38.9993 24.8191V26.5649H29.2012L29.5735 24.8191H38.9993Z" fill="#1B3281"/>
<path d="M23.8854 26.5662L24.4041 27.4473L23.3395 28.0238L21.7585 25.2189L22.774 24.5452C22.9432 24.8662 23.0393 24.994 23.2718 24.994C23.4563 24.994 23.6278 24.8815 23.6998 24.5933L24.0034 23.3671H22.1647L22.3809 22.4937H28.2397L28.0235 23.3671H27.3684L26.2536 27.8709H25.1083L25.6018 25.8751C25.4238 25.9155 25.2513 25.9307 25.0755 25.9307C24.6192 25.9307 24.3102 25.8183 24.0874 25.6185C23.9029 25.7146 23.7031 25.779 23.4967 25.803C23.4727 25.803 23.4465 25.8106 23.4225 25.8106L23.4149 25.8423C23.5415 26.0105 23.6605 26.1786 23.8854 26.564V26.5662ZM25.8617 24.8269L26.2231 23.3682H25.1258L24.82 24.602C24.7928 24.7144 24.76 24.8105 24.7229 24.899C24.8353 24.9306 24.9838 24.947 25.1673 24.947C25.3998 24.947 25.64 24.9153 25.8617 24.8269Z" fill="#231F20"/>
<path d="M26.5366 22.8104C26.1053 22.5462 25.7013 22.0734 25.3552 21.5286L24.865 20.7589L26.1348 20.4946L27.5171 22.8432H26.5857L26.5377 22.8115L26.5366 22.8104Z" fill="#231F20"/>
</svg>
