<svg width="180" height="55" viewBox="0 0 180 55" fill="none" xmlns="http://www.w3.org/2000/svg">
<path d="M101.657 24.4917C99.516 18.8294 92.5706 21.3677 91.9291 24.1988C91.0435 21.1864 84.2725 18.941 82.2014 24.4986C79.9002 30.6909 91.1272 36.2416 91.9291 37.1551C92.731 36.4299 103.958 30.5863 101.657 24.4986V24.4917Z" fill="#EC184A"/>
<path d="M153.015 37.5109H149.633L154.34 20.5171H157.722L153.015 37.5109Z" fill="#6D6E70"/>
<path d="M151.257 21.054C151.02 20.7333 150.658 20.5659 150.17 20.5659H131.565L130.645 23.8922H134.027H147.569L146.585 27.4485H133.043L129.661 27.4415L126.851 37.5806H130.233L132.116 30.7747H147.338C147.813 30.7747 148.259 30.6144 148.684 30.2866C149.103 29.9589 149.382 29.5614 149.514 29.0872L151.397 22.2813C151.536 21.7862 151.488 21.3748 151.257 21.054Z" fill="#6D6E70"/>
<path d="M124.885 36.451C124.696 37.1274 124.083 37.5876 123.385 37.5876H105.931C105.457 37.5876 105.102 37.4272 104.871 37.0995C104.641 36.7787 104.592 36.3743 104.725 35.9001L108.986 20.5659H112.375L108.567 34.2614H122.116L125.924 20.5659H129.313L124.899 36.451H124.885Z" fill="#6D6E70"/>
<path d="M163.565 20.5518L167.847 29.0661L158.844 37.5874L163.565 20.5518Z" fill="#008B44"/>
<path d="M160.56 20.5518L164.841 29.0661L155.832 37.5874L160.56 20.5518Z" fill="#F37920"/>
<path d="M76.581 23.5508C75.9952 21.8632 74.4053 20.6499 72.5365 20.6499H72.4947C71.2813 20.6499 70.1865 21.1589 69.4055 21.9818C68.6245 21.1589 67.5297 20.6499 66.3164 20.6499H66.2745C65.2076 20.6499 64.2314 21.0474 63.4783 21.6959V21.3681C63.4504 21.0334 63.1854 20.7754 62.8507 20.7754H59.9847C59.636 20.7754 59.3501 21.0613 59.3501 21.417V37.1625C59.3501 37.5182 59.636 37.8041 59.9847 37.8041H62.8507C63.1714 37.8041 63.4364 37.56 63.4783 37.2462V25.9496C63.4783 25.9077 63.4783 25.8729 63.4783 25.838C63.5271 25.3359 63.8897 24.9175 64.4685 24.8687H64.9984C65.2425 24.8896 65.4447 24.9733 65.6051 25.1058C65.8561 25.308 65.9956 25.6149 65.9956 25.9565L66.0095 37.2044C66.0095 37.56 66.2955 37.8459 66.6441 37.8459H69.5101C69.8518 37.8459 70.1238 37.574 70.1377 37.2323V25.9356C70.1377 25.566 70.3051 25.2244 70.6049 25.0291C70.7514 24.9315 70.9257 24.8687 71.1279 24.8478H71.6579C72.2785 24.9036 72.6551 25.3778 72.6481 25.9356L72.662 37.1695C72.662 37.5252 72.9479 37.8111 73.2966 37.8111H76.1626C76.5113 37.8111 76.7972 37.5252 76.7972 37.1695V25.0849C76.7972 24.262 76.7065 23.9134 76.581 23.5508Z" fill="#00BCF1"/>
<path d="M57.1815 20.817H55.5428V18.1323C55.5428 17.7976 55.2848 17.5396 54.964 17.5396C54.9292 17.5396 54.8873 17.5396 54.8525 17.5535C53.0325 18.0556 53.402 20.6008 50.0828 20.8239H49.762C49.7132 20.8239 49.6714 20.8239 49.6225 20.8379C49.3366 20.9007 49.1274 21.1587 49.1274 21.4655V24.3664C49.1274 24.722 49.4133 25.0079 49.762 25.0079H51.4914V37.3017C51.4914 37.6504 51.7703 37.9363 52.119 37.9363H54.9501C55.2988 37.9363 55.5777 37.6504 55.5777 37.3017V25.0009H57.1815C57.5302 25.0009 57.8161 24.715 57.8161 24.3594V21.4585C57.8161 21.1029 57.5302 20.817 57.1815 20.817Z" fill="#00BCF1"/>
<path d="M46.8681 20.8169H44.0021C43.6534 20.8169 43.3675 21.1028 43.3675 21.4584V27.4554C43.3675 27.825 43.0677 28.1249 42.6981 28.1249H41.4987C41.1291 28.1249 40.8293 27.825 40.8293 27.4485L40.8153 21.4584C40.8153 21.1028 40.5294 20.8169 40.1807 20.8169H37.3147C36.9661 20.8169 36.6802 21.1028 36.6802 21.4584V28.0272C36.6802 30.5237 38.4374 32.3018 40.906 32.3018C40.906 32.3018 42.7608 32.3018 42.8166 32.3158C43.1513 32.3576 43.4094 32.6365 43.4094 32.9852C43.4094 33.3339 43.1513 33.6128 42.8236 33.6546C42.8097 33.6546 42.7957 33.6546 42.7748 33.6616L38.5839 33.6756C38.2352 33.6756 37.9493 33.9615 37.9493 34.3171V37.211C37.9493 37.5666 38.2352 37.8525 38.5839 37.8525H43.2699C45.6059 37.8525 47.4957 35.9349 47.4957 33.5779V21.4584C47.4957 21.1028 47.2098 20.8169 46.8611 20.8169H46.8681Z" fill="#172B75"/>
<path d="M19.3792 20.8169H13.1172C12.7755 20.8169 12.4966 21.0958 12.4966 21.4445V24.2826V24.2965C12.4966 24.3175 12.4966 24.3314 12.4966 24.3454V37.197C12.4966 37.5457 12.7546 37.8316 13.0754 37.8386H15.9902C16.3388 37.8386 16.6247 37.5527 16.6247 37.197L16.6387 32.79H19.3792C21.6734 32.79 23.2702 31.1791 23.2702 28.8501V24.7638C23.2702 22.4347 21.6734 20.8169 19.3792 20.8169ZM19.1281 26.1305V27.9157C19.1281 28.2922 18.8283 28.5921 18.4587 28.5921H16.6387V25.0078H18.4587C18.8283 25.0078 19.1281 25.3146 19.1281 25.6842V26.1235V26.1305Z" fill="#172B75"/>
<path d="M30.5645 20.8379H26.5897C26.2411 20.8379 25.9552 21.1098 25.9552 21.4376V22.5882V22.6021V24.1572C25.9552 24.5128 26.255 24.7917 26.6316 24.7917H30.4181C30.7179 24.8405 30.955 25.0567 30.9899 25.4054V25.7819C30.955 26.1097 30.7249 26.3468 30.439 26.3746H28.5632C26.0668 26.3746 24.2886 28.0482 24.2886 30.4052V33.7802C24.2886 36.1232 25.8157 37.7829 28.2912 37.7829H33.4863C34.4207 37.7829 35.1738 37.0716 35.1738 36.186V25.1892C35.1738 22.5184 33.814 20.8379 30.5645 20.8379ZM31.0178 32.9365V33.3897C31.0178 33.4246 31.0178 33.4595 31.0038 33.4943C31.0038 33.5292 30.9899 33.5571 30.9759 33.585C30.8853 33.836 30.6342 34.0243 30.3414 34.0243H29.1489C28.7724 34.0243 28.4725 33.7384 28.4725 33.3897V32.8249V31.3675V30.9142C28.4725 30.5586 28.7724 30.2797 29.1489 30.2797H30.3414C30.7109 30.2797 31.0178 30.5656 31.0178 30.9142V32.9365Z" fill="#172B75"/>
</svg>
