<svg xmlns="http://www.w3.org/2000/svg"  viewBox="0 0 26 26"><path fill='#ffffff'  d="M13 2.4l5.2.1c1.3.1 1.9.3 2.4.4.6.2 1 .5 1.5 1s.7.9 1 1.5c.2.5.4 1.1.4 2.4.1 1.4.1 1.8.1 5.2l-.1 5.2c-.1 1.3-.3 1.9-.4 2.4-.2.6-.5 1-1 1.5s-.9.7-1.5 1c-.5.2-1.1.4-2.4.4-1.4.1-1.8.1-5.2.1s-3.9 0-5.2-.1-1.9-.3-2.4-.4c-.6-.2-1-.5-1.5-1s-.7-.9-1-1.5c-.2-.5-.4-1.1-.4-2.4-.1-1.4-.1-1.8-.1-5.2l.1-5.2c.1-1.3.3-1.9.4-2.4.2-.6.5-1 1-1.5s.9-.7 1.5-1c.5-.2 1.1-.4 2.4-.4 1.3-.1 1.7-.1 5.2-.1m0-2.3L7.7.2C6.3.2 5.4.4 4.5.7c-.8.4-1.5.8-2.3 1.5C1.5 3 1.1 3.7.7 4.5.4 5.4.2 6.3.1 7.7V13l.1 5.3c.1 1.4.3 2.3.6 3.1.3.9.8 1.6 1.5 2.3s1.4 1.2 2.3 1.5c.8.3 1.8.5 3.1.6 1.4.1 1.8.1 5.3.1l5.3-.1c1.4-.1 2.3-.3 3.1-.6.9-.3 1.6-.8 2.3-1.5s1.2-1.4 1.5-2.3c.3-.8.5-1.8.6-3.1.1-1.4.1-1.8.1-5.3l-.1-5.3c-.1-1.4-.3-2.3-.6-3.1-.3-.9-.8-1.6-1.5-2.3S22.3 1.1 21.4.8c-.8-.3-1.8-.5-3.1-.6S16.5.1 13 .1zm0 6.3c-3.7 0-6.6 3-6.6 6.6s3 6.6 6.6 6.6 6.6-3 6.6-6.6-2.9-6.6-6.6-6.6zm0 10.9c-2.4 0-4.3-1.9-4.3-4.3s1.9-4.3 4.3-4.3 4.3 1.9 4.3 4.3-1.9 4.3-4.3 4.3z"/><circle fill='#ffffff' cx="19.9" cy="6.1" r="1.6"/></svg>