<svg xmlns="http://www.w3.org/2000/svg" width="64" height="64" fill="none" stroke="#202020" stroke-miterlimit="10" stroke-width="2" stroke-linejoin="round"><g stroke-linecap="round"><path d="M17 15h26c2.3 0 2.1 1.6 1.7 3.1S41 33 41 33h10.1l4-2 3.9 2v8c0 1.3-.5 2-2 2h-8M9 43h6.6m9.4 0h14.6"/><path d="M43.6 23H49l6.1 8M31 23H9m18 8H5"/></g><path d="M24.8 44a6.9 6.9 0 0 1-6.2 5c-2.7 0-4.2-2.2-3.4-5a6.9 6.9 0 0 1 6.2-5c2.6 0 4.2 2.2 3.4 5zm24 0a6.9 6.9 0 0 1-6.2 5c-2.7 0-4.2-2.2-3.4-5a6.9 6.9 0 0 1 6.2-5c2.6 0 4.2 2.2 3.4 5z"/></svg>