<svg xmlns="http://www.w3.org/2000/svg" viewBox="0 0 26 26"><path d="M25.83 5.57c-.94.47-2 .7-3.05.82 1.06-.7 1.88-1.64 2.35-2.94-1.06.6-2.1 1.06-3.4 1.3-.94-1.06-2.35-1.64-3.87-1.64-2.94 0-5.28 2.35-5.28 5.28 0 .47 0 .82.12 1.17-4.47-.23-8.35-2.34-10.93-5.5-.47.82-.7 1.64-.7 2.7 0 1.88.94 3.4 2.35 4.46a4.25 4.25 0 0 1-2.35-.7v.12c0 2.58 1.88 4.7 4.23 5.17-.47 0-.94.12-1.4.12-.35 0-.7 0-.94-.12.6 2.1 2.58 3.64 4.93 3.64-1.88 1.53-4.1 2.35-6.58 2.35-.47 0-.82 0-1.3-.12C2.35 23.18 5.17 24 8.1 24c9.75 0 15.03-8.1 15.03-15.03v-.7a9.91 9.91 0 0 0 2.7-2.7z"/></svg>