<svg xmlns="http://www.w3.org/2000/svg" width="16" height="16" viewBox="0 0 16 16" fill="none" class="_wauiIcon__download-alternative _agnt _9u4c"><path fill-rule="evenodd" clip-rule="evenodd" d="M13.75 13.75C13.75 14.1642 13.4142 14.5 13 14.5L3 14.5C2.58579 14.5 2.25 14.1642 2.25 13.75C2.25 13.3358 2.58579 13 3 13L13 13C13.4142 13 13.75 13.3358 13.75 13.75Z" fill="currentColor"/><path fill-rule="evenodd" clip-rule="evenodd" d="M8.7487 2C8.7487 1.58579 8.41291 1.25 7.9987 1.25C7.58448 1.25 7.2487 1.58579 7.2487 2L7.2487 9.53955L3.19233 5.51449C2.89831 5.22274 2.42344 5.22458 2.13168 5.5186C1.83993 5.81263 1.84177 6.2875 2.13579 6.57925L7.46912 11.8714C7.76154 12.1616 8.23325 12.1616 8.52567 11.8714L13.859 6.57926C14.153 6.2875 14.1549 5.81263 13.8631 5.5186C13.5714 5.22458 13.0965 5.22274 12.8025 5.51449L8.7487 9.53697L8.7487 2Z" fill="currentColor"/></svg>