<svg width="20" height="21" viewBox="0 0 20 21" fill="none" xmlns="http://www.w3.org/2000/svg" class="_wauiIcon__instagram _adid _afbl"><path d="M15.34 3.96C15.1027 3.96 14.8707 4.03038 14.6733 4.16224C14.476 4.29409 14.3222 4.48151 14.2313 4.70078C14.1405 4.92005 14.1168 5.16133 14.1631 5.39411C14.2094 5.62689 14.3236 5.84071 14.4915 6.00853C14.6593 6.17635 14.8731 6.29064 15.1059 6.33694C15.3387 6.38324 15.5799 6.35948 15.7992 6.26866C16.0185 6.17783 16.2059 6.02402 16.3378 5.82668C16.4696 5.62935 16.54 5.39734 16.54 5.16C16.54 4.84174 16.4136 4.53652 16.1885 4.31147C15.9635 4.08643 15.6583 3.96 15.34 3.96ZM19.94 6.38C19.9206 5.5503 19.7652 4.7294 19.48 3.95C19.2257 3.28313 18.83 2.67928 18.32 2.18C17.8248 1.66743 17.2196 1.27418 16.55 1.03C15.7727 0.736161 14.9508 0.57721 14.12 0.56C13.06 0.5 12.72 0.5 10 0.5C7.28 0.5 6.94 0.5 5.88 0.56C5.04915 0.57721 4.22734 0.736161 3.45 1.03C2.78168 1.27665 2.17693 1.66956 1.68 2.18C1.16743 2.67518 0.774176 3.28044 0.53 3.95C0.236161 4.72734 0.07721 5.54915 0.0599999 6.38C-5.58794e-08 7.44 0 7.78 0 10.5C0 13.22 -5.58794e-08 13.56 0.0599999 14.62C0.07721 15.4508 0.236161 16.2727 0.53 17.05C0.774176 17.7196 1.16743 18.3248 1.68 18.82C2.17693 19.3304 2.78168 19.7234 3.45 19.97C4.22734 20.2638 5.04915 20.4228 5.88 20.44C6.94 20.5 7.28 20.5 10 20.5C12.72 20.5 13.06 20.5 14.12 20.44C14.9508 20.4228 15.7727 20.2638 16.55 19.97C17.2196 19.7258 17.8248 19.3326 18.32 18.82C18.8322 18.3226 19.2283 17.7182 19.48 17.05C19.7652 16.2706 19.9206 15.4497 19.94 14.62C19.94 13.56 20 13.22 20 10.5C20 7.78 20 7.44 19.94 6.38ZM18.14 14.5C18.1327 15.1348 18.0178 15.7637 17.8 16.36C17.6403 16.7952 17.3839 17.1884 17.05 17.51C16.7256 17.8405 16.3332 18.0964 15.9 18.26C15.3037 18.4778 14.6748 18.5927 14.04 18.6C13.04 18.65 12.67 18.66 10.04 18.66C7.41 18.66 7.04 18.66 6.04 18.6C5.38089 18.6123 4.72459 18.5109 4.1 18.3C3.68578 18.1281 3.31136 17.8728 3 17.55C2.66809 17.2287 2.41484 16.8352 2.26 16.4C2.01586 15.7952 1.88044 15.1519 1.86 14.5C1.86 13.5 1.8 13.13 1.8 10.5C1.8 7.87 1.8 7.5 1.86 6.5C1.86448 5.85106 1.98295 5.20795 2.21 4.6C2.38605 4.17791 2.65627 3.80166 3 3.5C3.30381 3.15617 3.67929 2.8831 4.1 2.7C4.70955 2.48004 5.352 2.36508 6 2.36C7 2.36 7.37 2.3 10 2.3C12.63 2.3 13 2.3 14 2.36C14.6348 2.36728 15.2637 2.48225 15.86 2.7C16.3144 2.86865 16.7223 3.14285 17.05 3.5C17.3777 3.80718 17.6338 4.18273 17.8 4.6C18.0223 5.20893 18.1373 5.85178 18.14 6.5C18.19 7.5 18.2 7.87 18.2 10.5C18.2 13.13 18.19 13.5 18.14 14.5ZM10 5.37C8.98581 5.37198 7.99496 5.67453 7.15265 6.23942C6.31035 6.80431 5.65438 7.6062 5.26763 8.54375C4.88089 9.48131 4.78072 10.5125 4.97979 11.5069C5.17886 12.5014 5.66824 13.4145 6.38608 14.131C7.10392 14.8474 8.01801 15.335 9.01286 15.5321C10.0077 15.7293 11.0387 15.6271 11.9755 15.2385C12.9123 14.85 13.7129 14.1924 14.2761 13.349C14.8394 12.5056 15.14 11.5142 15.14 10.5C15.1413 9.8251 15.0092 9.15661 14.7512 8.53296C14.4933 7.90931 14.1146 7.34281 13.6369 6.86605C13.1592 6.38929 12.5919 6.01168 11.9678 5.75493C11.3436 5.49818 10.6749 5.36736 10 5.37ZM10 13.83C9.34139 13.83 8.69757 13.6347 8.14995 13.2688C7.60234 12.9029 7.17552 12.3828 6.92348 11.7743C6.67144 11.1659 6.6055 10.4963 6.73398 9.85035C6.86247 9.20439 7.17963 8.61104 7.64533 8.14533C8.11104 7.67963 8.70439 7.36247 9.35035 7.23398C9.99631 7.1055 10.6659 7.17144 11.2743 7.42348C11.8828 7.67552 12.4029 8.10234 12.7688 8.64995C13.1347 9.19757 13.33 9.84139 13.33 10.5C13.33 10.9373 13.2439 11.3703 13.0765 11.7743C12.9092 12.1784 12.6639 12.5454 12.3547 12.8547C12.0454 13.1639 11.6784 13.4092 11.2743 13.5765C10.8703 13.7439 10.4373 13.83 10 13.83Z" fill="white"/></svg>