<svg xmlns="http://www.w3.org/2000/svg" viewBox="0 0 19 16" width="19" height="16" fill="none" class="_aghm _adid _afbl"><path d="M18.3087 2.19814C17.7317 2.43004 17.1358 2.5943 16.521 2.67161C16.5116 2.66194 16.5021 2.66194 16.4926 2.65228C17.2588 2.15948 17.7885 1.47344 18.0817 0.584469C18.0533 0.603794 18.0439 0.603795 18.0249 0.613457C17.325 1.02895 16.5778 1.31883 15.7832 1.49276C15.7359 1.50242 15.7076 1.49276 15.6792 1.45411C14.8279 0.594132 13.7969 0.207624 12.6051 0.333239C11.8106 0.420203 11.1201 0.729409 10.5336 1.28984C9.51207 2.26578 9.13373 3.47361 9.38912 4.88436C9.39858 4.94234 9.39857 4.96166 9.33236 4.96166C8.8878 4.93267 8.43377 4.88436 7.99866 4.7974C7.07171 4.62347 6.1826 4.32393 5.34077 3.89877C4.05438 3.26103 2.9477 2.39139 2.00182 1.28984C1.92615 1.20288 1.85049 1.11592 1.77482 1.01929C1.49106 1.46377 1.23567 2.22712 1.2735 3.03879C1.33025 4.32392 1.88832 5.31918 2.9004 6.06321C2.3045 6.04388 1.75588 5.87962 1.23565 5.58974C1.23565 6.49803 1.50052 7.30969 2.05858 8.00541C2.61665 8.71078 3.32605 9.1456 4.20572 9.34852C4.17734 9.35818 4.15843 9.36784 4.13951 9.36784C3.6382 9.49346 3.12741 9.51278 2.61664 9.42582C2.54097 9.41615 2.54097 9.41616 2.56935 9.49346C2.68285 9.83165 2.83418 10.1409 3.03282 10.4307C3.62872 11.2811 4.42326 11.8028 5.42589 11.9864C5.6056 12.0251 5.79479 12.0347 6.00288 12.0444C4.37597 13.3102 2.5599 13.8223 0.545181 13.6194C0.55464 13.6291 0.56409 13.6387 0.583007 13.6484C1.32079 14.1219 2.10587 14.4987 2.92878 14.7789C3.84628 15.0881 4.78271 15.2621 5.7475 15.3007C6.24881 15.3201 6.75959 15.3104 7.2609 15.2621C7.81897 15.2138 8.36757 15.1171 8.91618 14.9819C10.7985 14.4987 12.4065 13.5421 13.7496 12.112C14.8468 10.9332 15.6413 9.57076 16.1616 8.03439C16.4453 7.2034 16.6251 6.34342 16.7007 5.46412C16.7386 5.01964 16.748 4.57515 16.7291 4.13067C16.7291 4.0727 16.748 4.04371 16.7859 4.00506C17.4574 3.49293 18.0344 2.89385 18.5074 2.18847C18.5168 2.16915 18.5452 2.14982 18.5452 2.11117C18.4601 2.14016 18.3844 2.16915 18.3087 2.19814Z" fill="white"/></svg>