<svg width="23" height="16" viewBox="0 0 23 16" fill="none" xmlns="http://www.w3.org/2000/svg" class="_wauiIcon__youtube _adid _afbl"><path d="M22.0088 5.95168C22.0583 4.52034 21.7452 3.0997 21.0988 1.82168C20.6602 1.29728 20.0515 0.943393 19.3788 0.821683C16.5963 0.569209 13.8023 0.465727 11.0088 0.511683C8.22546 0.463642 5.44152 0.563783 2.66882 0.811683C2.12064 0.9114 1.61333 1.16853 1.20882 1.55168C0.308816 2.38168 0.208816 3.80168 0.108816 5.00168C-0.036272 7.15925 -0.036272 9.32412 0.108816 11.4817C0.137746 12.1571 0.23831 12.8275 0.408816 13.4817C0.529391 13.9867 0.773339 14.454 1.11882 14.8417C1.52608 15.2451 2.0452 15.5169 2.60882 15.6217C4.76473 15.8878 6.93703 15.9981 9.10882 15.9517C12.6088 16.0017 15.6788 15.9517 19.3088 15.6717C19.8863 15.5733 20.42 15.3012 20.8388 14.8917C21.1188 14.6116 21.3279 14.2688 21.4488 13.8917C21.8064 12.7943 21.9821 11.6458 21.9688 10.4917C22.0088 9.93168 22.0088 6.55168 22.0088 5.95168ZM8.74882 11.0917V4.90168L14.6688 8.01168C13.0088 8.93168 10.8188 9.97168 8.74882 11.0917Z" fill="white"/></svg>